# xmcd CD database file
#
# Track frame offsets:
#	150
#	16437
#	26427
#	36577
#	40957
#	46607
#	55277
#	63392
#	76807
#	84790
#	92392
#	100775
#	109960
#	132362
#	146182
#	156462
#	165357
#	174825
#	182772
#	192212
#	200590
#	210397
#	217682
#	226677
#
# Disc length: 3147 seconds
#
# Revision: 0
# Processed by: cddbd v1.5.1PL2 Copyright (c) Steve Scherf et al.
# Submitted via: CDex 1.51
#
DISCID=330c4918
DTITLE=Liturgicos - Cantos da Quaresma - Ano B
DYEAR=2005
DGENRE=Liturgico
TTITLE0=Hino da CF 2005-Levanta te vem pra o meio
TTITLE1=Entrada Cinzas Senhor eis aqui o teu povo
TTITLE2=Salmo Cinzas Piedade oh Senhor
TTITLE3=Aclamacao Cinzas e Dom 1a5 Louvor a vos oh Cristo Rei 
TTITLE4=Distribuicao Cinzas Pecador agora eh tempo
TTITLE5=Oferta Cinzas e dom 1 e 2 Recebe este canto do chao
TTITLE6=Comunhao Cinzas e 5 dom Agora o tempo se cumpriu
TTITLE7=Entrada 1 2 e 3 dom Joao Batista clamou no deserto
TTITLE8=Salmo 1a4 dom so melodia Verdade e amor sao os caminhos do senhor
TTITLE9=Comunhao 1 dom Quando invocar eu atenderei
TTITLE10=Comunhao 2 dom Então da nuvem luminosa
TTITLE11=Oferta 3a5 dom Eis o tempo de conversao
TTITLE12=Comunhao 3 e 4 dom O passarinho encontrou
TTITLE13=Entrada 4 dom Fiquei foi contente
TTITLE14=Salmo 4 domQue se prenda a minha lingua
TTITLE15=Comunhao 4 dom Glorifica o senhor
TTITLE16=Salmo 5 dom e Ramos Criai em mim um coracao q seja puro
TTITLE17=Entrada Ramos Hosana ao filho de Davi
TTITLE18=Entrada opci Ramos Hosana e viva
TTITLE19=Procissao de Ramos Os filhos dos Hebreus
TTITLE20=Aclamacao Ramos Salve o Cristo obediente
TTITLE21=Oferta Ramos O morte estas vencida
TTITLE22=Comunhao Ramos Eu vim para que todos tenham vida
TTITLE23=Comunhao Opcional Ramos Pai se este calice
EXTD=YEAR: 2005
EXTT0=
EXTT1=
EXTT2=
EXTT3=
EXTT4=
EXTT5=
EXTT6=
EXTT7=
EXTT8=
EXTT9=
EXTT10=
EXTT11=
EXTT12=
EXTT13=
EXTT14=
EXTT15=
EXTT16=
EXTT17=
EXTT18=
EXTT19=
EXTT20=
EXTT21=
EXTT22=
EXTT23=
PLAYORDER=
